<svg xmlns="http://www.w3.org/2000/svg" version="1.1" xmlns:xlink="http://www.w3.org/1999/xlink" xmlns:svgjs="http://svgjs.com/svgjs" width="1440" height="1000" preserveAspectRatio="none" viewBox="0 0 1440 1000"><g mask="url(&quot;#SvgjsMask1138&quot;)" fill="none"><rect width="1440" height="1000" x="0" y="0" fill="rgba(227, 160, 157, 1)"></rect><path d="M209 81L506 378" stroke-width="6" stroke="url(#SvgjsLinearGradient1139)" stroke-linecap="round" class="TopLeft"></path><path d="M563 644L842 923" stroke-width="8" stroke="url(#SvgjsLinearGradient1139)" stroke-linecap="round" class="TopLeft"></path><path d="M883 954L1367 1438" stroke-width="6" stroke="url(#SvgjsLinearGradient1139)" stroke-linecap="round" class="TopLeft"></path><path d="M552 307L-27 -272" stroke-width="8" stroke="url(#SvgjsLinearGradient1140)" stroke-linecap="round" class="BottomRight"></path><path d="M41 889L-301 547" stroke-width="10" stroke="url(#SvgjsLinearGradient1140)" stroke-linecap="round" class="BottomRight"></path><path d="M1014 119L629 -266" stroke-width="8" stroke="url(#SvgjsLinearGradient1140)" stroke-linecap="round" class="BottomRight"></path><path d="M512 476L-187 -223" stroke-width="6" stroke="url(#SvgjsLinearGradient1139)" stroke-linecap="round" class="TopLeft"></path><path d="M215 102L578 465" stroke-width="8" stroke="url(#SvgjsLinearGradient1140)" stroke-linecap="round" class="BottomRight"></path><path d="M537 19L802 284" stroke-width="8" stroke="url(#SvgjsLinearGradient1139)" stroke-linecap="round" class="TopLeft"></path><path d="M301 645L-49 295" stroke-width="6" stroke="url(#SvgjsLinearGradient1139)" stroke-linecap="round" class="TopLeft"></path><path d="M856 414L1343 901" stroke-width="8" stroke="url(#SvgjsLinearGradient1140)" stroke-linecap="round" class="BottomRight"></path><path d="M442 399L-148 -191" stroke-width="6" stroke="url(#SvgjsLinearGradient1139)" stroke-linecap="round" class="TopLeft"></path><path d="M1160 402L1664 906" stroke-width="6" stroke="url(#SvgjsLinearGradient1140)" stroke-linecap="round" class="BottomRight"></path><path d="M750 163L145 -442" stroke-width="6" stroke="url(#SvgjsLinearGradient1139)" stroke-linecap="round" class="TopLeft"></path><path d="M1324 24L597 -703" stroke-width="10" stroke="url(#SvgjsLinearGradient1140)" stroke-linecap="round" class="BottomRight"></path><path d="M860 456L1455 1051" stroke-width="8" stroke="url(#SvgjsLinearGradient1139)" stroke-linecap="round" class="TopLeft"></path><path d="M436 487L748 799" stroke-width="8" stroke="url(#SvgjsLinearGradient1139)" stroke-linecap="round" class="TopLeft"></path><path d="M21 699L305 983" stroke-width="8" stroke="url(#SvgjsLinearGradient1140)" stroke-linecap="round" class="BottomRight"></path><path d="M500 377L777 654" stroke-width="10" stroke="url(#SvgjsLinearGradient1139)" stroke-linecap="round" class="TopLeft"></path><path d="M997 462L1621 1086" stroke-width="6" stroke="url(#SvgjsLinearGradient1139)" stroke-linecap="round" class="TopLeft"></path><path d="M156 228L429 501" stroke-width="10" stroke="url(#SvgjsLinearGradient1139)" stroke-linecap="round" class="TopLeft"></path><path d="M1275 890L653 268" stroke-width="8" stroke="url(#SvgjsLinearGradient1139)" stroke-linecap="round" class="TopLeft"></path><path d="M839 160L419 -260" stroke-width="6" stroke="url(#SvgjsLinearGradient1139)" stroke-linecap="round" class="TopLeft"></path><path d="M113 948L-621 214" stroke-width="10" stroke="url(#SvgjsLinearGradient1140)" stroke-linecap="round" class="BottomRight"></path><path d="M838 795L284 241" stroke-width="6" stroke="url(#SvgjsLinearGradient1139)" stroke-linecap="round" class="TopLeft"></path><path d="M161 847L748 1434" stroke-width="10" stroke="url(#SvgjsLinearGradient1139)" stroke-linecap="round" class="TopLeft"></path><path d="M951 88L263 -600" stroke-width="10" stroke="url(#SvgjsLinearGradient1140)" stroke-linecap="round" class="BottomRight"></path><path d="M387 533L972 1118" stroke-width="8" stroke="url(#SvgjsLinearGradient1139)" stroke-linecap="round" class="TopLeft"></path><path d="M360 691L959 1290" stroke-width="6" stroke="url(#SvgjsLinearGradient1140)" stroke-linecap="round" class="BottomRight"></path><path d="M639 758L1111 1230" stroke-width="8" stroke="url(#SvgjsLinearGradient1140)" stroke-linecap="round" class="BottomRight"></path><path d="M574 719L1136 1281" stroke-width="10" stroke="url(#SvgjsLinearGradient1139)" stroke-linecap="round" class="TopLeft"></path><path d="M387 935L992 1540" stroke-width="10" stroke="url(#SvgjsLinearGradient1140)" stroke-linecap="round" class="BottomRight"></path><path d="M1093 178L389 -526" stroke-width="10" stroke="url(#SvgjsLinearGradient1140)" stroke-linecap="round" class="BottomRight"></path><path d="M712 573L70 -69" stroke-width="8" stroke="url(#SvgjsLinearGradient1140)" stroke-linecap="round" class="BottomRight"></path><path d="M1219 601L1628 1010" stroke-width="6" stroke="url(#SvgjsLinearGradient1139)" stroke-linecap="round" class="TopLeft"></path><path d="M466 497L1201 1232" stroke-width="6" stroke="url(#SvgjsLinearGradient1140)" stroke-linecap="round" class="BottomRight"></path><path d="M1014 188L324 -502" stroke-width="10" stroke="url(#SvgjsLinearGradient1140)" stroke-linecap="round" class="BottomRight"></path><path d="M675 974L15 314" stroke-width="6" stroke="url(#SvgjsLinearGradient1140)" stroke-linecap="round" class="BottomRight"></path><path d="M350 741L-49 342" stroke-width="8" stroke="url(#SvgjsLinearGradient1140)" stroke-linecap="round" class="BottomRight"></path><path d="M542 345L-188 -385" stroke-width="10" stroke="url(#SvgjsLinearGradient1139)" stroke-linecap="round" class="TopLeft"></path><path d="M19 709L645 1335" stroke-width="10" stroke="url(#SvgjsLinearGradient1139)" stroke-linecap="round" class="TopLeft"></path><path d="M156 357L707 908" stroke-width="6" stroke="url(#SvgjsLinearGradient1140)" stroke-linecap="round" class="BottomRight"></path><path d="M289 886L595 1192" stroke-width="8" stroke="url(#SvgjsLinearGradient1140)" stroke-linecap="round" class="BottomRight"></path><path d="M376 874L1019 1517" stroke-width="10" stroke="url(#SvgjsLinearGradient1139)" stroke-linecap="round" class="TopLeft"></path></g><defs><mask id="SvgjsMask1138"><rect width="1440" height="1000" fill="#ffffff"></rect></mask><linearGradient x1="100%" y1="100%" x2="0%" y2="0%" id="SvgjsLinearGradient1139"><stop stop-color="rgba(233, 213, 218, 0)" offset="0"></stop><stop stop-color="rgba(233, 213, 218, 1)" offset="1"></stop></linearGradient><linearGradient x1="0%" y1="0%" x2="100%" y2="100%" id="SvgjsLinearGradient1140"><stop stop-color="rgba(233, 213, 218, 0)" offset="0"></stop><stop stop-color="rgba(233, 213, 218, 1)" offset="1"></stop></linearGradient></defs></svg>